<svg width="58" height="58" viewBox="0 0 58 58" fill="none" xmlns="http://www.w3.org/2000/svg">
<circle opacity="0.9" cx="29" cy="29" r="29" fill="#0B2632"/>
<path d="M29.9151 10.6639C26.8181 10.7133 23.7674 11.5084 21.0334 12.9787C18.2993 14.449 15.9662 16.5491 14.2408 19.0931C12.5155 21.6371 11.451 24.5464 11.1417 27.5632C10.8324 30.5801 11.2879 33.6115 12.4678 36.3888C13.6477 39.1661 15.5156 41.6036 17.906 43.4855C20.2964 45.3673 23.1355 46.6354 26.172 47.1774C29.2084 47.7194 32.3483 47.5186 35.3137 46.5928C38.279 45.6669 40.9783 44.0446 43.1723 41.8695L42.5392 41.668C29.5739 37.5416 23.5199 22.6733 29.9151 10.6639Z" fill="white" fill-opacity="0.96"/>
</svg>
