<svg width="155" height="58" viewBox="0 0 155 58" fill="none" xmlns="http://www.w3.org/2000/svg">
<path fill-rule="evenodd" clip-rule="evenodd" d="M28.7378 57.7693C37.2968 57.7693 44.9864 54.0466 50.2756 48.132C47.8152 45.9936 44.1073 45.8637 41.4879 47.9773L40.9875 48.3811C36.1915 52.251 29.2032 51.6795 25.0997 47.0818C22.8616 44.5742 19.0287 44.3182 16.477 46.5058L10.7074 51.4521C15.649 55.4054 21.9173 57.7693 28.7378 57.7693ZM38.103 43.7824C42.6711 40.0963 49.0919 40.2285 53.4854 43.7886C56.1115 39.4374 57.6224 34.3375 57.6224 28.8846C57.6224 22.8256 55.7569 17.2024 52.5688 12.5579C50.5136 12.1202 48.2859 12.6314 46.5949 14.1299L46.1136 14.5564C41.5013 18.6436 34.4941 18.3952 30.1828 13.9918C27.8314 11.5902 23.9907 11.5113 21.5427 13.8144L14.8286 20.1309L11.1351 16.205L17.8492 9.88847C22.4349 5.57423 29.6295 5.72196 34.0343 10.2208C36.3358 12.5715 40.0765 12.7041 42.5387 10.5222L43.0199 10.0957C44.5145 8.77127 46.2438 7.8784 48.0542 7.40881C42.9369 2.803 36.1647 0 28.7378 0C14.0748 0 1.96373 10.9258 0.101438 25.0803C4.55516 22.9431 10.0488 23.7655 13.6802 27.4842C15.9727 29.8318 19.664 30.0796 22.2497 28.0595L26.0037 25.1267C30.7215 21.4409 37.3908 21.6193 41.9048 25.5522L49.2134 31.9197L45.6725 35.9838L38.364 29.6163C35.7972 27.38 32.0049 27.2785 29.3221 29.3744L25.5682 32.3071C20.8175 36.0186 14.0356 35.5633 9.82369 31.2501C7.37448 28.742 3.36876 28.6545 0.812355 31.0533L0 31.8155C0.607944 37.8485 3.07235 43.3335 6.81326 47.6907L12.9686 42.4136C17.7486 38.3156 24.9287 38.7952 29.1212 43.4926C31.3118 45.947 35.0423 46.2521 37.6026 44.1862L38.103 43.7824Z" fill="white"/>
<path d="M78.4277 38.1485C78.4277 44.1924 83.1719 48.1567 90.6456 48.1567C98.1843 48.1567 103.383 44.3224 103.383 38.2784C103.383 33.5342 100.719 31.0647 95.3248 29.7649L89.7358 28.4001C86.6163 27.6203 85.0566 26.1905 85.0566 24.0459C85.0566 21.1214 87.2012 19.4317 91.0356 19.4317C94.7399 19.4317 96.8846 21.4463 97.0145 24.6308H102.864C102.734 18.5868 98.1843 14.6875 91.2305 14.6875C84.2117 14.6875 79.2726 18.3918 79.2726 24.2408C79.2726 28.92 81.9371 31.7146 87.5912 33.0793L93.1802 34.3791C96.4946 35.224 97.5345 36.5237 97.5345 38.6684C97.5345 41.5929 95.0649 43.3476 90.7756 43.3476C86.7463 43.3476 84.2767 41.3979 84.2767 38.1485H78.4277Z" fill="white"/>
<path d="M125.17 48.1567C133.034 48.1567 138.363 44.3224 139.923 37.4986H134.204C133.164 41.1379 130.045 43.0876 125.3 43.0876C119.256 43.0876 115.747 39.3832 115.292 32.6894L139.858 32.6244V30.3498C139.858 20.9264 133.944 14.6875 124.911 14.6875C115.682 14.6875 109.378 21.5763 109.378 31.5196C109.378 41.3979 115.812 48.1567 125.17 48.1567ZM124.911 19.8216C130.305 19.8216 133.749 23.331 133.749 28.5951H115.422C116.202 23.0061 119.581 19.8216 124.911 19.8216Z" fill="white"/>
<path d="M150.971 8.05862C153.18 8.05862 155 6.23893 155 4.02931C155 1.7547 153.18 0 150.971 0C148.761 0 146.941 1.7547 146.941 4.02931C146.941 6.23893 148.761 8.05862 150.971 8.05862ZM147.981 47.3769H154.09V15.5973H147.981V47.3769Z" fill="white"/>
</svg>
